<?xml version="1.0" encoding="UTF-8"?>
<svg width="23px" height="28px" viewBox="0 0 23 28" version="1.1" xmlns="http://www.w3.org/2000/svg" xmlns:xlink="http://www.w3.org/1999/xlink">
    <!-- Generator: Sketch 49 (51002) - http://www.bohemiancoding.com/sketch -->
    <title>lion</title>
    <desc>Created with Sketch.</desc>
    <defs></defs>
    <g id="Welcome" stroke="none" stroke-width="1" fill="none" fill-rule="evenodd">
        <g id="Desktop-HD" transform="translate(-711.000000, -537.000000)" fill="#484848" fill-rule="nonzero">
            <g id="Group" transform="translate(291.000000, 116.000000)">
                <g id="Group-2" transform="translate(243.000000, 246.000000)">
                    <g id="Group-3" transform="translate(54.000000, 96.000000)">
                        <path d="M135.253275,82.329296 L135.124142,81.7153837 C135.124142,81.7153837 134.693699,81.6439986 134.406737,81.6582756 C134.119775,81.6725527 133.264427,81.4381626 133.086712,81.3870121 C132.81682,81.3093307 132.72801,81.1585797 132.72801,81.1585797 C132.72801,81.1585797 132.643409,81.0345032 132.684966,80.8587621 C132.717732,80.7201954 132.769245,80.3157748 132.928883,80.0878026 C133.032809,79.9393909 133.273238,79.9164782 133.273238,79.9164782 C133.273238,79.9164782 133.718508,79.8296316 133.93325,79.7451539 C134.12982,79.6678252 134.521522,79.4025052 134.521522,79.4025052 C134.521522,79.4025052 134.607028,79.2546913 134.665003,79.1883498 C134.684061,79.1665421 134.749929,79.1051231 134.83718,79.0884106 C134.922433,79.0720811 135.05757,79.1144521 135.095446,79.1169647 C135.162287,79.1213987 135.238927,79.1026876 135.238927,79.1026876 C135.238927,79.1026876 136.028072,78.9313633 136.946351,79.0313025 C137.148384,79.0532905 137.469365,79.0871247 137.77854,79.1883498 C138.268726,79.3488382 138.759215,79.606018 138.926388,79.7023228 C139.199002,79.8593701 139.930755,79.8736472 139.930755,79.8736472 C139.930755,79.8736472 139.752017,80.0327564 139.658141,80.0878025 C139.484186,80.1898037 139.098565,80.316235 139.098565,80.316235 C139.098565,80.316235 139.261914,80.526218 139.356831,80.6017755 C139.477135,80.6975423 139.729881,80.844485 139.729881,80.844485 L139.299438,80.9587012 C139.299438,80.9587012 139.442919,81.0300863 139.629445,81.2442418 C139.81597,81.4583972 140.11728,81.3870121 140.11728,81.3870121 C140.11728,81.3870121 139.936311,81.5570842 139.830318,81.5868905 C139.716307,81.6189514 139.399875,81.6011675 139.399875,81.6011675 C139.399875,81.6011675 139.772926,81.9866472 139.873362,82.1436946 C139.973799,82.3007419 140.088584,82.7576067 139.945103,83.0859784 C139.801622,83.41435 139.500312,83.4714581 139.500312,83.4714581 C139.500312,83.4714581 139.51466,83.2715797 139.500312,83.1288094 C139.485964,82.9860392 139.399875,82.9574851 139.399875,82.9574851 C139.399875,82.9574851 139.274416,83.2893138 139.227698,83.4571811 C139.188327,83.5986495 139.084217,84.0710933 139.270742,84.1710325 C139.457268,84.2709717 139.74423,84.1567555 139.74423,84.1567555 C139.74423,84.1567555 139.5864,84.4137419 139.356831,84.4708501 C139.127261,84.5279582 138.926388,84.5136811 138.926388,84.5136811 C138.926388,84.5136811 139.313787,84.7849447 139.328135,85.1275934 C139.342483,85.470242 138.98378,85.6986744 138.98378,85.6986744 C138.98378,85.6986744 138.931114,85.4283177 138.840299,85.3560258 C138.76372,85.2950655 138.481597,85.2989177 138.481597,85.2989177 C138.481597,85.2989177 138.499955,85.6639883 138.481597,85.8414447 C138.466477,85.9876009 138.38116,86.2697555 138.38116,86.2697555 C138.38116,86.2697555 138.159133,86.1332391 138.065502,86.0556001 C137.986955,85.9904688 137.835933,85.8414447 137.835933,85.8414447 C137.835933,85.8414447 138.080165,86.5030638 138.122894,86.8122826 C138.132775,86.8837846 138.022458,86.983607 138.022458,86.983607 C138.022458,86.983607 137.911462,86.6861668 137.77854,86.6124042 C137.719713,86.5797591 137.592015,86.5410191 137.462882,86.5838502 C137.333749,86.6266813 137.233312,86.5981272 137.233312,86.5981272 L137.520274,87.3548097 C137.520274,87.3548097 137.323359,87.3513152 137.233312,87.3119786 C137.127268,87.2656531 136.917654,87.0692692 136.917654,87.0692692 C136.864749,87.0737338 137.160008,87.6090471 136.975047,87.9258908 C136.816291,88.197844 136.395382,88.040107 135.985028,88.4255868 C135.574675,88.8110665 135.396756,89.3821476 135.396756,89.3821476 C135.396756,89.3821476 135.500556,89.4740823 135.568933,89.4820868 C135.663168,89.4931184 135.884591,89.4392558 135.884591,89.4392558 C135.884591,89.4392558 135.685503,89.6809768 135.568933,89.7247963 C135.470282,89.76188 135.238927,89.6819652 135.238927,89.6819652 C135.238927,89.6819652 135.835552,91.3564094 136.157205,92.1804451 C136.476433,92.9982677 137.161572,94.6075398 137.161572,94.6075398 C137.161572,94.6075398 137.526157,95.1390849 138.151591,95.0644047 C138.510293,95.0215736 139.191739,94.8816603 139.686837,94.3791074 C139.944191,94.1178778 140.204748,93.7802344 140.389894,93.4511005 C140.468725,93.3109632 140.545013,93.124606 140.633812,92.8942965 C140.69001,92.7485411 140.788415,92.5938063 140.777293,92.3946005 C140.748597,91.8806275 140.619463,91.7806883 140.605115,91.123945 C140.590768,90.4672017 140.716821,90.3515991 140.777293,90.0103369 C140.823166,89.7514602 140.805989,89.539195 140.805989,89.539195 C140.805989,89.539195 140.755189,89.0433781 140.590768,88.4684178 C140.43009,87.9065481 140.156688,87.2698368 140.074236,86.8836678 C139.963664,86.3657934 139.988147,86.0556001 140.002495,85.6272893 C140.016843,85.1989785 140.232065,84.6278974 140.719901,84.1567555 C141.207736,83.6856136 141.567398,83.4435978 142.111666,83.2001946 C142.380976,83.0797561 142.650521,83.1166943 142.872115,83.1002554 C143.098358,83.0834717 143.144729,83.0574243 143.230818,82.9860392 C143.316906,82.914654 143.263653,82.8066154 143.230818,82.7576067 C143.187129,82.6923993 143.044292,82.5862824 143.044292,82.5862824 C143.044292,82.5862824 143.23822,82.6034352 143.316906,82.6719446 C143.391266,82.7366875 143.460387,82.9289311 143.532127,82.9860392 C143.603867,83.0431474 143.879888,83.0655817 144.091703,83.0859784 C144.324679,83.1084127 144.717593,83.1408232 144.866501,83.1288094 C145.015408,83.1167957 145.081722,83.1145324 145.153463,82.9717621 C145.225203,82.8289919 145.368684,82.6719446 145.368684,82.6719446 C145.368684,82.6719446 145.353499,82.858653 145.39738,82.914654 C145.424018,82.9486485 145.509758,82.8700498 145.526513,82.8575459 C145.5526,82.8380774 145.628153,82.7736022 145.669994,82.7004986 C145.71043,82.6298508 145.71771,82.5505593 145.713038,82.5291743 C145.698631,82.4632304 145.612601,82.3435729 145.612601,82.3435729 L145.210855,82.2008027 C145.210855,82.2008027 145.348592,82.1407559 145.426076,82.1294175 C145.476398,82.122054 145.603159,82.1163319 145.69869,82.1436946 C145.764767,82.1626205 145.810503,82.2111651 145.827823,82.2293567 C145.849012,82.2516116 145.929026,82.3441017 145.942608,82.4577892 C145.957056,82.5787255 145.903095,82.7227418 145.856519,82.8004378 C145.784267,82.9209663 145.426076,83.2430257 145.426076,83.2430257 C145.426076,83.2430257 145.461211,83.3324568 145.411728,83.41435 C145.345879,83.5233304 145.183817,83.6359257 145.110418,83.6713365 C144.993605,83.7276926 144.579539,83.8141068 144.507798,83.8426609 C144.436058,83.8712149 144.421709,83.9997082 144.421709,83.9997082 C144.421709,83.9997082 144.436058,84.2424176 144.895197,84.2566946 C145.098908,84.2630291 145.222691,84.2106709 145.282596,84.1282014 C145.357708,84.024795 145.339988,83.885492 145.339988,83.885492 C145.339988,83.885492 145.459781,83.9961181 145.483469,84.0996473 C145.499504,84.169728 145.428359,84.2403271 145.411728,84.2566946 C145.348311,84.3191093 145.253899,84.3566338 145.253899,84.3566338 L144.837804,84.4994041 C144.837804,84.4994041 144.763343,84.944552 144.923893,85.1847015 C145.050022,85.3733647 145.403096,85.3754227 145.497817,85.3417488 C145.626889,85.2958627 145.794237,85.1834631 145.885216,85.0704852 C145.983213,84.9487905 146,84.8277758 146,84.8277758 C146,84.8277758 145.98171,85.1923053 145.784779,85.455965 C145.640346,85.6493375 145.332326,85.7782931 145.210855,85.7843366 C144.923893,85.7986136 144.337695,85.6492392 144.048659,85.484519 C143.912926,85.4071654 143.89083,85.2989177 143.89083,85.2989177 L143.89083,85.6415664 C143.89083,85.6415664 143.585776,85.4547456 143.460387,85.3417488 C143.332292,85.2263131 143.130381,84.9562691 143.130381,84.9562691 C143.130381,84.9562691 143.004148,85.3870646 142.872115,85.5273501 C142.808658,85.5947741 142.72537,85.7270362 142.613849,85.7843366 C142.461501,85.8626148 142.283843,85.8557218 142.283843,85.8557218 C142.283843,85.8557218 142.604536,85.4990616 142.570805,85.2132555 C142.550445,85.0407404 142.23656,84.9069779 142.111666,84.8563298 C141.958836,84.7943531 141.711277,84.7582836 141.494698,84.8277757 C141.327969,84.8812729 141.120208,84.978867 140.94947,85.1133163 C140.734525,85.2825776 140.475983,85.3988569 140.475983,86.0984313 C140.475983,86.7980057 140.644362,87.0427491 140.777293,87.4975799 C140.916976,87.9755149 141.130387,88.5389477 141.293824,88.8967287 C141.457261,89.2545098 141.650994,89.2563759 141.709919,89.5391949 C141.768844,89.822014 141.537742,90.067445 141.537742,90.067445 C141.537742,90.067445 141.696947,90.1630244 141.810356,90.1959382 C141.926516,90.2296505 142.412265,90.2642138 142.484717,90.2387693 C142.574877,90.2071057 142.714286,90.0959991 142.714286,90.0959991 C142.714286,90.0959991 142.868241,89.940579 142.915159,89.7676274 C142.96018,89.6016722 142.89883,89.4186992 142.872115,89.3821476 C142.841365,89.3400753 142.719344,89.2211426 142.613849,89.2393774 C142.512721,89.2568573 142.427324,89.4107017 142.427324,89.4107017 C142.427324,89.4107017 142.433806,89.2968491 142.45602,89.2393774 C142.481633,89.1731149 142.570805,89.039499 142.570805,89.039499 C142.570805,89.039499 142.691738,88.9579402 142.800375,88.9681138 C142.88647,88.9761765 142.961335,89.0696566 142.9869,89.1108841 C143.067775,89.2413082 143.216469,89.6248571 143.216469,89.6248571 C143.216469,89.6248571 143.273862,89.8104584 143.216469,89.9532288 C143.159077,90.095999 143.087336,90.2387693 143.087336,90.2387693 C143.087336,90.2387693 142.798492,90.551981 142.427324,90.7241882 C142.044748,90.9016881 141.551439,90.9383437 141.595135,90.9383436 C141.629083,90.9383436 141.666875,91.1524991 142.111666,91.3095464 C142.556457,91.4665937 143.101684,91.3666545 143.101684,91.3666545 C143.101684,91.3666545 142.860075,91.5342402 142.714286,91.609364 C142.592244,91.6722515 142.298191,91.7806883 142.298191,91.7806883 C142.298191,91.7806883 142.18749,91.7731485 142.08297,91.7378572 C141.965462,91.6981809 141.847942,91.6292604 141.752964,91.609364 C141.701186,91.5985175 141.562242,91.5895471 141.494698,91.623641 C141.440722,91.6508861 141.450787,91.7188906 141.451654,91.7378572 C141.454486,91.7998545 141.494697,91.9234586 141.494697,91.9234586 C141.494697,91.9234586 141.675017,91.870175 141.824704,91.9234586 C141.971089,91.9755665 142.086627,92.1337289 142.111666,92.1804451 C142.175807,92.3001143 142.197755,92.5659248 142.197755,92.5659248 C142.197755,92.5659248 141.953553,92.3001816 141.839052,92.2232762 C141.804026,92.1997509 141.667078,92.1769996 141.580786,92.2232762 C141.477852,92.278478 141.428238,92.4143647 141.451654,92.5230938 C141.494698,92.7229721 141.78166,92.6944181 141.78166,92.6944181 C141.78166,92.6944181 141.684359,92.7623609 141.623831,92.7943572 C141.531312,92.8432641 141.308173,92.8942965 141.293824,92.9942357 C141.279476,93.0941749 141.018666,93.9228581 140.389894,94.6075398 C139.629445,95.4356074 138.208983,96.1066277 138.208983,96.1066277 L138.639426,97.3915603 C138.639426,97.3915603 138.835028,98.91959 139.299438,99.304682 C139.471616,99.4474522 139.583789,99.4695412 139.715533,99.4474522 C139.883552,99.4192814 140.074236,99.333236 140.074236,99.333236 C140.074236,99.333236 139.99427,99.5538918 139.916407,99.6330536 C139.774266,99.7775653 139.414223,100.004256 139.414223,100.004256 C139.414223,100.004256 139.843395,100.168311 140.246413,100.004256 C140.562071,99.8757631 140.633307,99.5453466 140.734249,99.333236 C140.790842,99.2143148 140.877729,99.1619117 140.877729,99.1619117 C140.877729,99.1619117 141.250779,99.2190199 141.222084,99.2190198 C141.213423,99.2190198 141.041823,99.2803978 140.963818,99.4474522 C140.868974,99.6505697 140.832426,99.9610483 140.762945,100.189858 C140.73399,100.285209 140.683266,100.429055 140.605116,100.503952 C140.513966,100.591308 140.391695,100.603298 140.318154,100.618168 C140.142082,100.653771 139.945103,100.661 139.945103,100.661 C139.945103,100.661 139.996919,100.732894 140.145976,100.775216 C140.297245,100.818165 140.726559,100.859713 140.963818,100.960817 C141.199963,101.061447 141.244327,101.221405 141.279476,101.360574 C141.360257,101.680417 141.313218,102.115662 141.318091,102.133472 C141.329198,102.174061 141.351776,102.241283 141.408609,102.24575 C141.570061,102.25844 141.8534,102.145811 141.8534,102.145811 C141.8534,102.145811 141.835223,102.385772 141.796007,102.488459 C141.744351,102.623723 141.580786,102.859662 141.580786,102.859662 C141.580786,102.859662 141.66637,102.939859 141.796008,102.988155 C141.927489,103.037138 142.1037,103.054268 142.197755,103.05954 C142.350536,103.068105 142.527761,102.988155 142.527761,102.988155 C142.527761,102.988155 142.338483,103.211503 142.197755,103.316527 C142.089783,103.397104 141.867748,103.459297 141.867748,103.459297 L141.867748,103.730561 C141.867748,103.730561 142.003194,103.796505 142.097318,103.816223 C142.184936,103.834577 142.412976,103.844777 142.412976,103.844777 L141.882096,104.50152 C141.882096,104.50152 142.170368,104.897156 142.369932,105.044047 C142.519505,105.154143 142.929507,105.27248 142.929507,105.27248 L142.039925,105.41525 C142.039925,105.41525 141.882096,106.057716 141.466002,106.300426 C141.049907,106.543135 140.332502,106.47175 140.332502,106.47175 L139.988147,107 L139.199002,106.942892 L139.084217,106.571689 L138.438553,106.743013 L138.137243,106.286149 L137.376793,106.257595 C137.376793,106.257595 137.375149,105.9666 137.333749,105.829284 C137.303409,105.72865 137.161572,105.543743 137.161572,105.543743 C137.161572,105.543743 137.264295,105.275981 137.491578,105.072601 C137.687503,104.897281 137.996975,104.786043 138.165939,104.74423 C138.47622,104.667443 139.107888,104.861429 139.500312,104.915554 C139.813725,104.958781 139.930755,104.858446 139.930755,104.858446 C139.930755,104.858446 139.988147,104.729952 139.988147,104.601459 C139.988147,104.472966 141.049906,103.801946 141.049906,103.801946 C141.049906,103.801946 140.593362,103.515762 140.332502,103.487851 C140.148571,103.468171 139.715533,103.659175 139.715533,103.659175 L139.701185,102.459905 C139.701185,102.459905 138.558143,102.550119 137.950717,102.302858 C137.635059,102.174365 137.611467,101.991829 137.491578,101.845993 C137.315548,101.631864 137.161572,101.489067 137.161572,101.489067 C137.161572,101.489067 136.960699,101.489067 136.960699,101.489067 C136.960699,101.489067 136.789115,101.826823 136.716781,102.00304 C136.650417,102.164713 136.544604,102.502736 136.544604,102.502736 C136.544604,102.502736 136.616344,102.902493 136.860262,102.988155 C137.10418,103.073817 137.204616,102.902493 137.204616,102.902493 C137.204616,102.902493 137.22425,103.003556 137.161572,103.088094 C137.11307,103.153513 136.992767,103.208539 136.917654,103.202311 C136.745477,103.188033 136.155915,102.893955 135.870243,102.759723 C135.671363,102.666272 135.356787,102.454581 135.06675,102.359966 C134.883771,102.300275 134.676289,102.316652 134.621959,102.345689 C134.486161,102.418267 134.385094,102.554028 134.378041,102.631229 C134.363693,102.788277 134.722395,102.859662 134.722395,102.859662 L134.392389,103.073817 L133.847162,102.217196 C133.847162,102.217196 134.299393,102.235381 134.392389,101.960209 C134.446808,101.799188 134.460415,101.510474 134.492826,101.317743 C134.513271,101.196166 134.564566,101.117865 134.564566,101.117865 C134.564566,101.117865 134.649135,101.523026 134.779788,101.560452 C134.964793,101.613448 135.511541,101.389128 135.511541,101.389128 C135.511541,101.389128 135.717699,100.689197 135.511541,100.075641 C135.348894,99.5915817 134.783633,99.2272391 134.665003,98.847817 C134.603149,98.6499847 134.390687,97.8111605 134.320649,97.5486076 C134.240372,97.2476729 134.134124,97.0203575 134.134124,97.0203575 C134.134124,97.0203575 132.822325,97.4849049 132.240175,98.1910738 C132.117716,98.3396208 132.262422,98.6963822 132.283219,98.9049252 C132.311973,99.1932528 132.244242,99.3280397 132.168434,99.4046211 C132.006163,99.568547 131.71594,99.575903 131.565814,99.6473306 C131.35393,99.7481424 131.307548,99.8757631 131.307548,99.8757631 C131.307548,99.8757631 131.427317,100.126998 131.623207,100.375459 C131.760702,100.549854 131.957715,100.724156 132.082346,100.80377 C132.167553,100.8582 132.469744,100.618169 132.469744,100.618169 L132.541485,101.360574 L133.058016,101.431959 C133.058016,101.431959 132.872727,101.487811 132.79975,101.531898 C132.738811,101.568714 132.656269,101.674669 132.656269,101.674669 L132.670618,101.888824 C132.670618,101.888824 132.346978,102.039349 132.354959,102.174365 C132.362822,102.307368 132.576953,102.520308 132.670618,102.716892 C132.766742,102.918639 132.742358,103.102371 132.742358,103.102371 C132.742358,103.102371 132.696079,103.193097 132.570181,103.259419 C132.461829,103.316497 132.138745,103.393733 131.953213,103.473574 C131.797436,103.54061 131.766687,103.616344 131.766687,103.616344 L131.996257,104.030378 C131.996257,104.030378 131.765011,104.147096 131.709295,104.230257 C131.669357,104.289866 131.709295,104.458689 131.709295,104.458689 L131.465377,104.344473 L131.336245,104.64429 L131.135371,104.230257 L130.791017,104.401581 L130.604492,104.701399 C130.604492,104.701399 130.395431,104.608459 130.31753,104.558628 C130.194557,104.479966 130.001871,104.315919 130.001871,104.315919 L129.901435,104.787061 C129.901435,104.787061 129.769507,104.227165 129.614473,104.373027 C129.458667,104.519614 129.279341,105.372349 129.112289,105.529466 C129.047873,105.590051 128.975701,105.621955 128.925764,105.672236 C128.83232,105.766325 128.696195,106.000608 128.696195,106.000608 C128.696195,106.000608 128.582886,105.836708 128.480973,105.772176 C128.425057,105.736769 128.222707,105.70079 128.222707,105.70079 C128.222707,105.70079 128.088482,105.483966 128.007486,105.386696 C127.949784,105.317401 127.806613,105.201094 127.806613,105.201094 L127.404866,105.286757 L127.031815,105.729344 C127.031815,105.729344 126.827515,105.144956 126.658765,104.958385 C126.526205,104.811826 126.127885,104.729953 126.127885,104.729953 C126.127885,104.729953 126.037151,104.579841 126.0131,104.50152 C125.984541,104.408517 125.970056,104.21598 125.970056,104.21598 L125.726139,104.173149 L125.367436,104.515797 C125.367436,104.515797 125.266999,104.030378 125.64005,103.516405 C126.0131,103.002432 126.400499,103.002432 126.400499,103.002432 C126.400499,103.002432 129.700562,103.573513 129.872739,102.645506 C129.924798,102.364917 129.853647,102.014451 129.657517,101.788885 C129.46411,101.566449 129.147419,101.468124 128.95446,101.303466 C128.695928,101.082852 128.638802,100.875155 128.638802,100.875155 C128.638802,100.875155 128.465043,100.425818 128.437929,100.147027 C128.407651,99.8357008 128.466625,99.1048036 128.466625,99.1048036 L127.935745,99.318959 C127.935745,99.318959 127.585846,99.0545649 127.304429,99.4902833 C127.302306,99.4935703 127.382138,100.097289 127.333125,100.375459 C127.276097,100.699118 127.060512,100.703831 127.060512,100.703831 C127.060512,100.703831 127.162548,100.405955 127.1466,100.218412 C127.128164,100.001607 126.98083,99.694411 126.931379,99.4046211 C126.882493,99.1181487 126.931379,98.8478171 126.931379,98.8478171 L127.175296,98.6051076 C127.175296,98.6051076 127.38133,98.4944585 127.533999,98.3338441 C127.648321,98.2135722 127.777916,98.0483035 127.720524,97.8341481 C127.663132,97.6199927 127.390518,97.4486684 127.390518,97.4486684 C127.390518,97.4486684 127.442567,97.1058856 127.490954,96.9346953 C127.5717,96.6490207 127.777916,96.0780737 127.777916,96.0780737 C127.777916,96.0780737 127.620087,96.777648 127.935745,96.8775872 C128.251404,96.9775264 128.638802,96.4207224 128.638802,96.4207224 L129.4136,96.1780129 C129.4136,96.1780129 129.858391,95.5498236 130.561447,95.3071142 C131.264504,95.0644047 132.354959,95.1500669 132.354959,95.1500669 C132.354959,95.1500669 132.886606,95.2050547 133.144105,95.2500061 C133.431834,95.3002348 133.990643,95.4356075 133.990643,95.4356075 C133.990643,95.4356075 134.320649,94.9930195 134.220212,94.6789249 C134.17156,94.5267775 133.627592,93.6866717 132.986275,92.9656816 C132.303653,92.1982535 131.52277,91.5522559 131.52277,91.5522559 L131.121023,91.1810532 C131.121023,91.1810532 130.733625,91.3095464 130.417966,91.2809923 C130.102308,91.2524383 129.872739,91.0097288 129.872739,91.0097288 C129.872739,91.0097288 129.623923,91.2735418 129.470992,91.3381005 C129.308265,91.4067941 128.95446,91.4094856 128.95446,91.4094856 C128.95446,91.4094856 129.180022,91.2153275 129.270119,91.109668 C129.313938,91.0582801 129.356207,90.9383437 129.356207,90.9383437 C129.356207,90.9383437 128.58141,91.123945 128.064878,91.0240059 C127.548347,90.9240666 127.462258,90.5385869 127.462258,90.5385869 L127.232689,90.5385869 C127.232689,90.5385869 127.138047,90.753093 127.003119,90.9097896 C126.915994,91.0109713 126.793961,91.046508 126.730505,91.123945 C126.638748,91.2359195 126.47224,91.4665937 126.47224,91.4665937 C126.47224,91.4665937 126.178941,91.3066787 126.084841,91.1953301 C126.001981,91.0972823 125.927012,90.8384045 125.927012,90.8384045 C125.927012,90.8384045 125.678017,91.1131841 125.396132,91.2381613 C125.217223,91.317483 125.066126,91.2096072 124.908297,91.3095464 C124.750468,91.4094856 124.73612,91.609364 124.73612,91.609364 C124.73612,91.609364 124.596646,91.3271676 124.578291,91.1810532 C124.548819,90.9464469 124.592639,90.4672018 124.592639,90.4672018 L124.43481,90.595695 C124.43481,90.595695 124.189087,90.5430798 124.061759,90.5243099 C123.930821,90.5050077 123.803493,90.4814788 123.803493,90.4814788 C123.803493,90.4814788 123.60262,90.4243707 123.559576,90.5528639 C123.516531,90.6813572 123.416095,90.8384045 123.416095,90.8384045 C123.416095,90.8384045 123.243918,90.4100936 123.416095,90.095999 C123.588272,89.7819044 124.162196,89.6676883 124.162196,89.6676883 L123,89.4249787 C123,89.4249787 123.358702,88.9252828 124.033063,88.9110057 C124.226927,88.9069014 124.424349,88.929935 124.607261,88.9648425 C124.802833,89.0021663 125.381784,89.3393165 125.597006,89.1537152 C125.627775,89.1271801 125.752164,89.0507416 125.855271,88.9823909 C125.998336,88.8875522 126.084841,88.8110665 126.400499,88.8538976 C126.514866,88.8694158 126.74152,88.8603017 126.960075,88.8110665 C127.344743,88.7244101 127.763216,88.5544035 127.921397,88.4684178 C128.189875,88.3224761 128.696195,87.9401679 128.696195,87.9401679 C128.696195,87.9401679 128.292824,87.7017633 127.993138,87.5404111 C127.94437,87.514154 127.577043,87.2977016 127.577043,87.2977016 C127.577043,87.2977016 127.600837,87.2370936 127.634435,87.1977624 C127.682143,87.1419135 127.820961,87.012161 127.820961,87.012161 L127.734872,86.9122219 C127.734872,86.9122219 127.420754,86.9907218 127.247037,86.9550529 C127.119444,86.9288547 126.830942,86.7266205 126.830942,86.7266205 C126.830942,86.7266205 127.184391,86.8225763 127.232689,86.5695732 C127.256471,86.4449925 127.144582,86.2587251 127.089208,86.0556001 C127.036667,85.8628694 127.040502,85.6520366 127.060512,85.5701812 C127.105717,85.3852571 127.218341,85.1418704 127.218341,85.1418704 C127.218341,85.1418704 126.821232,85.1347481 126.630069,85.1561474 C126.438616,85.1775792 126.070493,85.2703637 126.070493,85.2703637 L125.754835,85.1989785 L126.113537,84.7421137 L125.840923,84.6421744 C125.840923,84.6421744 125.654398,84.3138028 125.310044,84.2995257 C124.965689,84.2852487 124.606987,84.5279582 124.606987,84.5279582 C124.606987,84.5279582 124.563943,83.9997082 124.764816,83.7712757 C124.965689,83.5428432 125.295696,83.5856744 125.295696,83.5856744 C125.295696,83.5856744 125.137867,83.1288094 124.836556,82.9574851 C124.535246,82.7861608 124.219588,82.8004379 124.219588,82.8004379 C124.219588,82.8004379 124.262633,82.6005594 124.578291,82.4720661 C124.893949,82.3435729 125.496569,82.4292351 125.496569,82.4292351 L125.597006,82.5577284 C125.597006,82.5577284 125.596674,82.2791768 125.582658,82.1436946 C125.563195,81.9555642 125.496569,81.5868905 125.496569,81.5868905 C125.496569,81.5868905 126.016729,81.6317508 126.228322,81.7011067 C126.423259,81.765003 126.716157,81.9866473 126.716157,81.9866473 C126.716157,81.9866473 126.716157,82.5577284 127.046163,82.871823 C127.129745,82.9513745 127.390518,83.1002554 127.706176,83.3286878 C127.767795,83.3732794 127.921397,83.6570595 127.921397,83.6570595 C127.921397,83.6570595 128.313315,84.0280442 128.524017,84.2138636 C128.764991,84.4263796 128.982117,84.6592616 129.212726,84.8277757 C129.54861,85.0732181 129.858391,85.2132556 129.858391,85.2132556 L129.973175,85.5844582 L131.407985,84.9134379 C131.407985,84.9134379 130.831674,84.9091122 130.61884,84.8706069 C130.410796,84.8329681 130.145352,84.6850055 130.145352,84.6850055 C130.145352,84.6850055 129.915783,84.5707892 129.858391,84.2709717 C129.800998,83.9711541 129.973175,83.5856744 129.973175,83.5856744 C129.973175,83.5856744 129.944479,83.7712757 130.260137,83.928323 C130.575795,84.0853703 131.278852,84.0425392 131.278852,84.0425392 C131.278852,84.0425392 130.92015,83.8854919 130.934498,83.6142284 C130.948846,83.3429649 131.278852,83.3001338 131.278852,83.3001338 C131.278852,83.3001338 131.235808,83.5571203 131.59451,83.6856136 C131.953213,83.8141068 132.298148,83.8254359 132.670618,83.8141068 C132.957692,83.8053751 132.95758,83.8141068 133.746725,83.8141068 C134.194927,83.8141068 134.639115,83.7176682 134.808484,83.5713973 C134.937321,83.4601306 134.852453,83.2976881 134.808484,83.2573027 C134.723728,83.1794542 134.320649,83.0431473 134.320649,83.0431473 C134.320649,83.0431473 133.618168,83.0664107 133.373674,83.1145324 C133.182942,83.1520729 133.144105,83.2001946 133.144105,83.2001946 L133.144105,83.1002554 C133.144105,83.1002554 133.026017,82.8814148 133.000624,82.7576067 C132.97819,82.6482234 133.000624,82.400681 133.000624,82.400681 C133.000624,82.400681 132.053649,82.4577892 131.264504,82.3435729 C130.475359,82.2293567 130.250162,81.9723702 130.260137,81.6725526 C130.264426,81.5436617 130.305876,81.3061979 130.489707,81.1300255 C130.733491,80.8963974 131.14679,80.7277862 131.264504,80.6446066 C131.318633,80.6063575 131.433865,80.4959535 131.436681,80.3733431 C131.440292,80.216144 131.321896,80.0449715 131.321896,80.0449715 C131.321896,80.0449715 131.551466,80.1020796 131.795384,80.1877417 C132.039301,80.2734039 132.122066,80.5502338 132.111042,80.6160526 C132.10589,80.6468117 132.000832,80.7983255 131.795384,80.9158701 C131.486853,81.0923923 131.034935,81.1871336 130.848409,81.3870121 C130.767242,81.4739895 130.637546,81.7183284 130.747973,81.8438769 C130.815027,81.9201142 131.007729,82.0019731 131.264504,82.0437553 C131.556623,82.0912886 131.918556,82.0931699 132.039301,82.0865864 C132.552157,82.0586238 133.144105,81.9580932 133.144105,81.9580932 L135.253275,82.329296 Z" id="lion"></path>
                    </g>
                </g>
            </g>
        </g>
    </g>
</svg>