<svg xmlns="http://www.w3.org/2000/svg" width="23" height="28">
  <path fill="#484848" d="M12.253 3.33l-.129-.615s-.43-.071-.717-.057c-.287.015-1.143-.22-1.32-.271-.27-.078-.359-.228-.359-.228s-.085-.124-.043-.3c.033-.139.084-.543.244-.771.104-.149.344-.172.344-.172s.446-.086.66-.17c.197-.078.589-.343.589-.343s.085-.148.143-.215a.334.334 0 0 1 .172-.1c.085-.016.22.026.258.029.067.004.144-.014.144-.014s.79-.172 1.707-.072c.202.022.523.056.833.157.49.16.98.418 1.147.514.273.157 1.005.172 1.005.172s-.179.159-.273.214c-.174.102-.56.228-.56.228s.164.21.259.286c.12.096.373.242.373.242l-.43.115s.143.071.33.285c.186.214.487.143.487.143s-.18.17-.287.2c-.114.032-.43.014-.43.014s.373.386.473.543c.1.157.216.614.072.942a.66.66 0 0 1-.445.385s.015-.2 0-.342c-.014-.143-.1-.172-.1-.172s-.126.332-.172.5c-.04.142-.144.614.043.714.186.1.473-.014.473-.014s-.158.257-.387.314c-.23.057-.43.043-.43.043s.387.27.401.614c.014.342-.344.57-.344.57s-.053-.27-.144-.342c-.076-.06-.358-.057-.358-.057s.018.365 0 .542c-.016.147-.1.429-.1.429s-.223-.137-.316-.214a5.193 5.193 0 0 1-.23-.215s.244.662.287.971c.01.072-.1.172-.1.172s-.112-.298-.244-.372a.418.418 0 0 0-.316-.028c-.13.043-.23.014-.23.014l.287.757s-.197-.004-.287-.043c-.106-.046-.315-.243-.315-.243-.053.005.242.54.057.857-.159.272-.58.114-.99.5-.41.385-.588.956-.588.956s.104.092.172.1c.094.011.316-.043.316-.043s-.2.242-.316.286c-.099.037-.33-.043-.33-.043s.597 1.674.918 2.498c.32.818 1.005 2.428 1.005 2.428s.364.531.99.456c.358-.042 1.04-.182 1.535-.685.257-.261.518-.599.703-.928a4.46 4.46 0 0 0 .244-.557c.056-.145.154-.3.143-.5-.028-.513-.158-.613-.172-1.27-.014-.657.112-.772.172-1.114.046-.259.029-.47.029-.47s-.05-.497-.215-1.072c-.16-.561-.434-1.198-.517-1.584-.11-.518-.086-.828-.072-1.257.015-.428.23-1 .718-1.47.488-.471.847-.713 1.392-.957.269-.12.539-.083.76-.1.226-.017.273-.043.359-.114.086-.071.033-.18 0-.228a1.09 1.09 0 0 0-.187-.172s.194.017.273.086c.074.065.143.257.215.314.072.057.348.08.56.1.233.022.626.055.775.043.148-.012.215-.014.286-.157.072-.143.216-.3.216-.3s-.016.187.028.243c.027.034.113-.045.13-.057a.6.6 0 0 0 .143-.158c.04-.07.048-.15.043-.17-.014-.067-.1-.186-.1-.186L22.21 3.2s.138-.06.215-.072a.762.762 0 0 1 .273.015.297.297 0 0 1 .129.085.441.441 0 0 1 .115.229.608.608 0 0 1-.086.342c-.073.121-.43.443-.43.443s.034.09-.015.171a.865.865 0 0 1-.302.257c-.116.057-.53.143-.602.172-.072.028-.086.157-.086.157s.014.242.473.257c.204.006.328-.046.388-.129.075-.103.057-.243.057-.243s.12.111.143.215c.017.07-.055.14-.071.157-.064.062-.158.1-.158.1l-.416.142s-.075.446.086.686c.126.188.48.19.574.157a.985.985 0 0 0 .387-.272c.098-.121.115-.242.115-.242s-.018.364-.215.628a.977.977 0 0 1-.574.328c-.287.015-.873-.135-1.162-.3-.136-.077-.158-.185-.158-.185v.343s-.305-.187-.43-.3c-.129-.116-.33-.386-.33-.386s-.127.431-.259.571c-.063.068-.147.2-.258.257-.152.079-.33.072-.33.072s.32-.357.287-.643c-.02-.172-.334-.306-.46-.357a.968.968 0 0 0-.616-.028 1.816 1.816 0 0 0-.546.285c-.214.17-.473.286-.473.985 0 .7.168.945.301 1.4.14.478.353 1.04.517 1.399.163.358.357.36.416.642.059.283-.172.528-.172.528s.159.096.272.129c.117.034.602.068.675.043.09-.032.23-.143.23-.143s.153-.155.2-.328a.571.571 0 0 0-.043-.386c-.03-.042-.153-.16-.258-.143-.101.018-.187.172-.187.172s.007-.114.029-.172c.026-.066.115-.2.115-.2s.12-.081.23-.07c.085.007.16.1.186.142.08.13.23.514.23.514s.057.185 0 .328c-.058.143-.13.286-.13.286s-.289.313-.66.485c-.382.178-.876.214-.832.214.034 0 .072.214.517.372.444.157.99.057.99.057s-.242.167-.388.242a5.478 5.478 0 0 1-.416.172s-.11-.008-.215-.043c-.118-.04-.235-.109-.33-.129-.052-.01-.19-.02-.258.015-.054.027-.044.095-.043.114.002.062.043.185.043.185s.18-.053.33 0c.146.053.262.21.287.257.064.12.086.386.086.386s-.244-.266-.359-.343a.325.325 0 0 0-.258 0c-.103.055-.153.191-.13.3.044.2.33.171.33.171s-.097.068-.157.1c-.093.05-.316.1-.33.2-.015.1-.275.929-.904 1.614-.76.828-2.181 1.499-2.181 1.499l.43 1.285s.196 1.528.66 1.913c.173.142.285.165.417.142.168-.028.358-.114.358-.114s-.08.22-.158.3c-.142.145-.502.371-.502.371s.43.164.832 0c.316-.128.387-.459.488-.67.057-.12.144-.172.144-.172s.373.057.344.057a.457.457 0 0 0-.258.228c-.095.204-.132.514-.201.743-.029.095-.08.24-.158.314-.091.087-.213.1-.287.114-.176.036-.373.043-.373.043s.052.072.201.114c.151.043.58.085.818.186.236.1.28.26.315.4.081.32.034.755.04.772.01.041.033.108.09.113.161.012.444-.1.444-.1s-.018.24-.057.342c-.052.136-.215.372-.215.372s.085.08.215.128c.131.05.308.066.402.072a.843.843 0 0 0 .33-.072s-.19.224-.33.329a1.3 1.3 0 0 1-.33.142v.272s.135.066.23.085c.087.019.315.029.315.029l-.53.657s.287.395.487.542c.15.11.56.228.56.228l-.89.143s-.158.643-.574.885c-.416.243-1.133.172-1.133.172l-.345.528-.789-.057-.115-.371-.645.171-.302-.457-.76-.028s-.002-.291-.043-.429c-.03-.1-.172-.285-.172-.285s.102-.268.33-.471c.196-.176.505-.287.674-.329.31-.077.942.117 1.334.172.314.043.43-.058.43-.058s.058-.128.058-.257c0-.128 1.062-.8 1.062-.8s-.457-.285-.717-.313c-.184-.02-.617.171-.617.171l-.015-1.2s-1.143.091-1.75-.156c-.316-.129-.34-.311-.46-.457a4 4 0 0 0-.33-.357h-.2s-.172.338-.244.514c-.067.162-.172.5-.172.5s.071.4.315.485c.244.086.345-.086.345-.086s.02.102-.043.186a.332.332 0 0 1-.244.114c-.173-.014-.762-.308-1.048-.442-.199-.094-.513-.305-.803-.4-.183-.06-.39-.043-.445-.014-.136.072-.237.208-.244.285-.014.157.344.229.344.229l-.33.214-.545-.857s.452.018.545-.257c.055-.16.068-.45.1-.642.021-.122.073-.2.073-.2s.084.405.215.442c.185.053.732-.17.732-.17s.206-.7 0-1.314c-.163-.484-.728-.849-.847-1.228-.062-.198-.274-1.037-.344-1.3-.08-.3-.187-.528-.187-.528s-1.312.465-1.894 1.171c-.122.149.022.505.043.714.029.288-.039.423-.115.5-.162.164-.452.17-.602.242-.212.101-.258.229-.258.229s.12.251.315.5c.138.174.335.348.46.428.085.054.387-.186.387-.186l.071.743.517.071s-.185.056-.258.1a.76.76 0 0 0-.144.143l.015.214s-.324.15-.316.285c.008.133.222.346.316.543.096.202.071.385.071.385s-.046.091-.172.157c-.108.057-.431.135-.617.215-.156.067-.186.142-.186.142l.23.414s-.232.117-.288.2c-.04.06 0 .229 0 .229l-.244-.115-.129.3-.2-.414-.345.172-.187.3s-.209-.094-.286-.143c-.123-.079-.316-.243-.316-.243l-.1.471s-.132-.56-.288-.414c-.155.147-.335 1-.502 1.156-.064.061-.136.093-.186.143-.094.094-.23.329-.23.329s-.113-.164-.215-.229a1.21 1.21 0 0 0-.258-.071s-.135-.217-.216-.314a1.88 1.88 0 0 0-.2-.186l-.402.086-.373.442s-.204-.584-.373-.77c-.133-.147-.531-.229-.531-.229s-.09-.15-.115-.228a1.816 1.816 0 0 1-.043-.286l-.244-.043-.359.343s-.1-.486.273-1 .76-.514.76-.514 3.3.572 3.473-.356c.052-.281-.02-.632-.215-.857-.194-.223-.51-.32-.704-.486-.258-.22-.315-.428-.315-.428s-.174-.45-.201-.728c-.03-.311.029-1.042.029-1.042l-.531.214s-.35-.264-.632.171c-.002.004.078.607.03.885-.058.324-.273.329-.273.329s.102-.298.086-.486c-.019-.216-.166-.524-.216-.813-.049-.287 0-.557 0-.557l.244-.243s.206-.11.359-.271c.114-.12.244-.286.187-.5-.058-.214-.33-.385-.33-.385s.052-.343.1-.514c.08-.286.287-.857.287-.857s-.158.7.158.8c.315.1.703-.457.703-.457l.775-.243s.444-.628 1.147-.87c.704-.244 1.794-.158 1.794-.158s.532.055.79.1c.287.05.846.186.846.186s.33-.443.23-.757c-.05-.152-.593-.992-1.235-1.713-.682-.768-1.463-1.414-1.463-1.414l-.402-.37s-.387.128-.703.099c-.316-.029-.545-.271-.545-.271s-.25.264-.402.328c-.163.069-.517.071-.517.071s.226-.194.316-.3c.044-.05.086-.17.086-.17s-.775.185-1.291.085c-.517-.1-.603-.485-.603-.485h-.23s-.094.214-.229.37c-.087.102-.209.138-.272.215a9.778 9.778 0 0 0-.259.343s-.293-.16-.387-.272c-.083-.098-.158-.357-.158-.357s-.249.275-.53.4c-.18.08-.33-.028-.489.072-.158.1-.172.3-.172.3s-.14-.283-.158-.429c-.03-.235.015-.714.015-.714l-.158.129s-.246-.053-.373-.072a8.22 8.22 0 0 1-.259-.043s-.2-.057-.243.072a1.6 1.6 0 0 1-.144.285s-.172-.428 0-.742.746-.428.746-.428L0 10.425s.359-.5 1.033-.514c.194-.004.391.019.574.054.196.037.775.374.99.189.03-.027.155-.103.258-.172.143-.094.23-.17.545-.128.115.015.342.006.56-.043.385-.087.803-.257.961-.343.269-.146.775-.528.775-.528s-.403-.238-.703-.4c-.049-.026-.416-.242-.416-.242s.024-.06.057-.1c.048-.056.187-.186.187-.186l-.086-.1s-.314.079-.488.043c-.128-.026-.416-.228-.416-.228s.353.096.402-.157c.023-.125-.088-.311-.144-.514a1.172 1.172 0 0 1-.028-.486c.045-.185.157-.428.157-.428s-.397-.007-.588.014c-.191.022-.56.114-.56.114l-.315-.07.359-.457-.273-.1s-.187-.328-.531-.342c-.344-.015-.703.228-.703.228s-.043-.528.158-.757c.2-.228.53-.185.53-.185s-.157-.457-.458-.629c-.302-.17-.617-.157-.617-.157s.043-.2.358-.328c.316-.128.919-.043.919-.043l.1.129s0-.279-.014-.414c-.02-.188-.086-.557-.086-.557s.52.045.731.114c.195.064.488.286.488.286s0 .57.33.885c.084.08.345.228.66.457.062.044.215.328.215.328s.392.371.603.557c.241.212.458.445.689.614.336.245.645.385.645.385l.115.371 1.435-.67s-.576-.005-.79-.043a1.92 1.92 0 0 1-.473-.186s-.23-.114-.287-.414c-.057-.3.115-.685.115-.685s-.029.185.287.342c.316.157 1.019.115 1.019.115s-.359-.158-.345-.429c.015-.271.345-.314.345-.314s-.043.257.316.386c.358.128.703.14 1.076.128.287-.009.287 0 1.076 0 .448 0 .892-.096 1.061-.243.13-.11.044-.273 0-.314-.084-.078-.487-.214-.487-.214s-.703.023-.947.072c-.191.037-.23.085-.23.085v-.1s-.118-.219-.143-.342c-.023-.11 0-.357 0-.357s-.947.057-1.736-.057c-.79-.115-1.015-.372-1.005-.671a.8.8 0 0 1 .23-.543c.243-.234.657-.402.775-.485.054-.039.169-.149.172-.272.003-.157-.115-.328-.115-.328s.23.057.473.143c.244.085.327.362.316.428-.005.03-.11.182-.316.3-.308.176-.76.271-.947.471-.08.087-.21.331-.1.457.067.076.26.158.517.2.292.047.654.05.774.043a11.476 11.476 0 0 0 1.105-.129l2.11.371z"/>
</svg>
