<svg xmlns="http://www.w3.org/2000/svg" width="20" height="20">
  <path fill="#484848" d="M10 0C4.478 0 0 4.59 0 10.253c0 4.53 2.865 8.373 6.839 9.728.5.094.682-.223.682-.493 0-.244-.009-1.052-.014-1.909-2.78.62-3.368-1.209-3.368-1.209-.456-1.184-1.11-1.499-1.11-1.499-.91-.636.069-.623.069-.623 1.004.071 1.532 1.056 1.532 1.056.892 1.567 2.341 1.114 2.91.851.091-.66.35-1.114.635-1.369-2.22-.26-4.555-1.139-4.555-5.068 0-1.12.39-2.033 1.028-2.751-.101-.26-.446-1.304.1-2.715 0 0 .838-.275 2.75 1.052A9.3 9.3 0 0 1 10 4.959a9.32 9.32 0 0 1 2.504.346c1.908-1.328 2.747-1.052 2.747-1.052.547 1.413.203 2.455.1 2.714.641.718 1.028 1.631 1.028 2.751 0 3.939-2.338 4.806-4.566 5.06.36.318.678.942.678 1.898 0 1.37-.013 2.475-.013 2.813 0 .273.182.592.689.492 3.97-1.358 6.833-5.2 6.833-9.728C20 4.59 15.522 0 10 0z"/>
</svg>
